<svg width="125" height="125" viewBox="0 0 125 125" fill="none" xmlns="http://www.w3.org/2000/svg">
<g clip-path="url(#clip0_1_577)">
<path d="M-436.333 890.457H1483.67V-346H-436.333V890.457Z" fill="#C6C5BB"/>
<path d="M638.819 176.826V147.554V6.82568V-22.4463C638.819 -30.7313 632.103 -37.4463 623.819 -37.4463H507.628H404.478H381.016H366.016H270.839H223.091H199.628H184.628H-13.6979H-37.1608H-52.1608V-22.4463V-8.17432V-1.98631V6.82568V27.2867V147.554V176.826C-52.1608 185.111 -45.4448 191.826 -37.1608 191.826H199.628H270.839H381.016H507.628H623.819C632.103 191.826 638.819 185.111 638.819 176.826Z" fill="#DEDC00"/>
<path d="M87.572 95.9495C86.325 95.5255 84.97 96.1935 84.546 97.4415C84.545 97.4445 84.544 97.4485 84.542 97.4525C84.375 97.9775 84.185 98.5015 83.97 99.0025C83.457 100.215 84.023 101.613 85.234 102.127C85.526 102.259 85.844 102.324 86.165 102.318C87.122 102.318 87.986 101.745 88.359 100.863C88.622 100.219 88.86 99.5995 89.075 98.9795C89.499 97.7315 88.831 96.3765 87.583 95.9535C87.579 95.9525 87.576 95.9505 87.572 95.9495Z" fill="#666881"/>
<path d="M93.7743 57.7815C93.7933 49.4365 90.4283 41.4395 84.4473 35.6205C83.4983 34.6975 81.9813 34.7195 81.0593 35.6674C80.1373 36.6164 80.1583 38.1334 81.1073 39.0555C86.1803 43.9614 89.0313 50.7245 89.0033 57.7815V72.6195C89.0163 78.7495 88.2133 84.8545 86.6183 90.7725C86.2713 92.0445 87.0213 93.3555 88.2923 93.7014C88.2983 93.7035 88.3053 93.7055 88.3113 93.7074H88.9313C90.0403 93.7455 91.0293 93.0134 91.3173 91.9415C92.9583 85.6094 93.7603 79.0885 93.7023 72.5475L93.7743 57.7815Z" fill="#666881"/>
<path d="M28.0059 87.8388C28.6399 87.8428 29.2489 87.5938 29.6999 87.1468L31.0829 85.7398C34.5689 82.2628 36.5259 77.5418 36.5219 72.6188V57.7818C36.5109 43.2888 48.2499 31.5318 62.7429 31.5208C66.6709 31.5178 70.5499 32.3968 74.0939 34.0938C75.2389 34.7448 76.6959 34.3448 77.3469 33.1998C77.9979 32.0538 77.5979 30.5978 76.4529 29.9458C76.3539 29.8898 76.2509 29.8408 76.1449 29.7998C60.6949 22.4088 42.1779 28.9418 34.7869 44.3918C32.7879 48.5718 31.7499 53.1478 31.7509 57.7818V72.6188C31.7589 76.2828 30.2989 79.7968 27.6959 82.3758L26.3119 83.7598C25.3769 84.6878 25.3709 86.1978 26.2979 87.1328C26.3029 87.1378 26.3079 87.1428 26.3119 87.1468C26.7619 87.5938 27.3719 87.8428 28.0059 87.8388Z" fill="#666881"/>
<path d="M84.2323 64.938C84.2323 63.62 83.1643 62.553 81.8473 62.553C80.5293 62.553 79.4613 63.62 79.4613 64.938V72.619C79.4873 84.263 76.1763 95.671 69.9193 105.492C69.2103 106.599 69.5303 108.071 70.6353 108.784C71.0193 109.032 71.4663 109.164 71.9233 109.165C72.7343 109.164 73.4893 108.751 73.9273 108.068C80.6833 97.481 84.2603 85.178 84.2323 72.619V64.938Z" fill="#666881"/>
<path d="M43.6787 67.3235C44.9967 67.3235 46.0647 66.2555 46.0647 64.9385V57.7815C45.4907 48.5595 52.5027 40.6185 61.7247 40.0455C70.9477 39.4725 78.8877 46.4835 79.4617 55.7065C79.6327 57.0235 80.8397 57.9525 82.1567 57.7815C83.4747 57.6105 84.4037 56.4035 84.2327 55.0855C83.4877 43.2285 73.2727 34.2195 61.4147 34.9645C49.5577 35.7085 40.5487 45.9245 41.2937 57.7815V64.9385C41.2937 66.2555 42.3617 67.3235 43.6787 67.3235Z" fill="#666881"/>
<path d="M43.6787 72.0945C42.3647 71.9995 41.2227 72.9875 41.1267 74.3015C41.1267 74.3055 41.1267 74.3095 41.1267 74.3135C40.7237 79.9055 38.3177 85.1645 34.3517 89.1265L31.4647 92.1325C30.4707 92.9975 30.3657 94.5035 31.2297 95.4985C32.0937 96.4925 33.6007 96.5975 34.5947 95.7335C34.6877 95.6535 34.7737 95.5655 34.8527 95.4725L37.8347 92.4905C42.6377 87.7285 45.5597 81.3915 46.0647 74.6465C46.1567 73.3325 45.1657 72.1925 43.8517 72.1005C43.7937 72.0965 43.7367 72.0945 43.6787 72.0945Z" fill="#666881"/>
<path d="M71.613 81.6364C70.322 81.3724 69.062 82.2054 68.798 83.4964C67.029 91.9044 63.182 99.7374 57.61 106.278C56.754 107.28 56.871 108.786 57.872 109.642C58.874 110.498 60.38 110.381 61.236 109.379C67.325 102.226 71.532 93.6664 73.474 84.4754C73.75 83.1874 72.93 81.9184 71.642 81.6424C71.632 81.6404 71.623 81.6384 71.613 81.6364Z" fill="#666881"/>
<path d="M55.6062 57.7815C55.6062 53.8295 58.8102 50.6255 62.7632 50.6255C66.7152 50.6255 69.9192 53.8295 69.9192 57.7815V72.6195V74.2895C69.8142 75.6065 70.7962 76.7605 72.1142 76.8655C73.4312 76.9705 74.5852 75.9885 74.6902 74.6705V72.6195V57.7815C74.6902 51.1945 69.3502 45.8545 62.7632 45.8545C56.1752 45.8545 50.8352 51.1945 50.8352 57.7815V72.6195C50.9152 81.3615 47.4772 89.7695 41.2932 95.9495C40.3582 96.8775 40.3512 98.3875 41.2792 99.3235C41.2842 99.3275 41.2882 99.3325 41.2932 99.3365C42.2212 100.272 43.7312 100.278 44.6672 99.3505C44.6712 99.3465 44.6762 99.3415 44.6802 99.3365C51.7482 92.2505 55.6832 82.6275 55.6062 72.6195V57.7815Z" fill="#666881"/>
<path d="M50.0002 100.41C49.3562 101.173 48.6642 101.889 47.9482 102.605C47.0132 103.532 47.0072 105.043 47.9352 105.978L47.9482 105.992C48.8762 106.927 50.3872 106.934 51.3222 106.006C51.3272 106.001 51.3312 105.997 51.3362 105.992C52.1472 105.181 52.8862 104.37 53.7212 103.607C54.5782 102.605 54.4602 101.099 53.4592 100.243C52.4582 99.3874 50.9522 99.5044 50.0952 100.505L50.0002 100.41Z" fill="#666881"/>
<path d="M57.9917 97.5955C62.6767 90.1075 65.1577 81.4515 65.1487 72.6195V57.7815C65.1487 56.4635 64.0807 55.3955 62.7627 55.3955C61.4457 55.3955 60.3777 56.4635 60.3777 57.7815V72.6195C60.3887 80.5595 58.1557 88.3405 53.9367 95.0665C53.2377 96.1865 53.5797 97.6605 54.6997 98.3585C55.8197 99.0575 57.2937 98.7155 57.9917 97.5955Z" fill="#666881"/>
<path d="M30.7731 36.7891C31.8211 37.5881 33.3181 37.3861 34.1161 36.3391C34.1231 36.3301 34.1301 36.3211 34.1371 36.3121C45.9941 20.5021 68.4221 17.2981 84.2321 29.1551C93.2421 35.9131 98.5451 46.5181 98.5451 57.7811V69.7091C98.5451 71.0261 99.6131 72.0941 100.931 72.0941C102.248 72.0941 103.316 71.0261 103.316 69.7091V57.7811C103.334 35.3841 85.1921 17.2141 62.7951 17.1961C50.0051 17.1861 37.9601 23.2101 30.2961 33.4491C29.5051 34.5031 29.7191 35.9981 30.7731 36.7891Z" fill="#666881"/>
<path d="M26.9802 57.7815C26.9822 53.0505 27.9142 48.3645 29.7232 43.9935C30.1072 42.7325 29.3972 41.4005 28.1362 41.0165C27.0442 40.6835 25.8692 41.1715 25.3342 42.1805C23.2642 47.1205 22.2012 52.4245 22.2092 57.7815V69.7085C22.2092 71.0265 23.2772 72.0945 24.5952 72.0945C25.9122 72.0945 26.9802 71.0265 26.9802 69.7085V57.7815Z" fill="#666881"/>
<path d="M3.12507 31.541C4.44207 31.541 5.51007 30.473 5.51007 29.155V5.30002H29.3661C30.6831 5.30002 31.7511 4.23202 31.7511 2.91502C31.7511 1.59702 30.6831 0.529016 29.3661 0.529016H3.12507C1.80707 0.529016 0.739075 1.59702 0.739075 2.91502V29.155C0.739075 30.473 1.80707 31.541 3.12507 31.541Z" fill="#666881"/>
<path d="M122.4 0.529261H96.1593C94.8423 0.529261 93.7743 1.59726 93.7743 2.91426C93.7743 4.23226 94.8423 5.30026 96.1593 5.30026H120.015V29.1553C120.015 30.4733 121.082 31.5413 122.4 31.5413C123.718 31.5413 124.785 30.4733 124.785 29.1553V2.91426C124.785 1.59726 123.718 0.529261 122.4 0.529261Z" fill="#666881"/>
<path d="M122.4 93.5639C121.082 93.5639 120.015 94.6319 120.015 95.9489V119.805H96.1593C94.8423 119.805 93.7743 120.873 93.7743 122.19C93.7743 123.508 94.8423 124.576 96.1593 124.576H122.4C123.718 124.576 124.785 123.508 124.785 122.19V95.9489C124.785 94.6319 123.718 93.5639 122.4 93.5639Z" fill="#666881"/>
<path d="M29.3657 119.805H5.51068V95.9496C5.51068 94.6326 4.44268 93.5636 3.12469 93.5636C1.80768 93.5636 0.739685 94.6326 0.739685 95.9496V122.19C0.739685 123.508 1.80768 124.576 3.12469 124.576H29.3657C30.6827 124.576 31.7507 123.508 31.7507 122.19C31.7507 120.873 30.6827 119.805 29.3657 119.805Z" fill="#666881"/>
</g>
<defs>
<clipPath id="clip0_1_577">
<rect width="1920" height="3500" fill="white" transform="translate(-436.333 -1396)"/>
</clipPath>
</defs>
</svg>
