<svg width="20" height="20" viewBox="0 0 20 20" fill="none" xmlns="http://www.w3.org/2000/svg">
<path d="M17.4334 1.91643C15.0624 -0.457571 11.2784 -0.64957 8.67944 1.47243C6.08044 3.59443 5.51144 7.33943 7.36244 10.1384C8.73644 12.2154 11.1724 13.3304 13.6424 13.0124C16.1124 12.6954 18.1884 11.0014 18.9934 8.64543C19.7984 6.28843 19.1934 3.67843 17.4334 1.91643ZM16.4614 10.1824C14.4474 12.1964 11.1824 12.1964 9.16744 10.1824C7.15344 8.16743 7.15344 4.90243 9.16744 2.88843C11.1824 0.87443 14.4474 0.87443 16.4614 2.88843C17.4324 3.85343 17.9784 5.16643 17.9784 6.53543C17.9784 7.90443 17.4324 9.21743 16.4614 10.1824Z" fill="white"/>
<path d="M0.498128 16.4203C-0.167872 17.0923 -0.165872 18.1773 0.503128 18.8463C1.17313 19.5153 2.25713 19.5183 2.92913 18.8523L7.46613 14.3153L5.03413 11.8843L0.498128 16.4203Z" fill="white"/>
<path d="M8.19196 12.078C8.02596 11.94 7.86396 11.795 7.71096 11.641C7.55696 11.487 7.41196 11.323 7.27296 11.157C7.23396 11.111 7.19696 11.065 7.15996 11.018C7.11796 10.965 7.07296 10.915 7.03196 10.86L6.00696 11.885L7.46496 13.343L8.48996 12.32C8.43596 12.28 8.38696 12.235 8.33296 12.193C8.28596 12.154 8.23896 12.117 8.19196 12.078Z" fill="white"/>
</svg>
