<svg width="47" height="47" viewBox="0 0 47 47" fill="none" xmlns="http://www.w3.org/2000/svg">
<path d="M23.381 46.761C36.294 46.761 46.761 36.293 46.761 23.38C46.761 10.468 36.294 -1.52588e-05 23.381 -1.52588e-05C10.468 -1.52588e-05 0 10.468 0 23.38C0 36.293 10.468 46.761 23.381 46.761Z" fill="#E6007D"/>
<path d="M31.8667 13.9324L25.6785 32.136H21.47L15.2942 13.9324H19.1914L22.6155 24.7649C22.6736 24.9475 22.769 25.292 22.9019 25.7983C23.0347 26.2964 23.1675 26.8276 23.3003 27.3921C23.4414 27.9482 23.5369 28.4089 23.5867 28.7742C23.6365 28.4089 23.7236 27.9482 23.8481 27.3921C23.981 26.8359 24.1096 26.3088 24.2341 25.8108C24.3669 25.3044 24.4624 24.9558 24.5205 24.7649L27.9695 13.9324H31.8667Z" fill="white"/>
</svg>
