<svg width="19" height="19" viewBox="0 0 19 19" fill="none" xmlns="http://www.w3.org/2000/svg">
<g clip-path="url(#clip0_0_1)">
<g clip-path="url(#clip1_0_1)">
<path d="M17.4038 13.9417C16.8548 13.4807 13.6328 11.4407 13.0968 11.5347C12.8458 11.5787 12.6538 11.7937 12.1388 12.4077C11.9008 12.7097 11.6388 12.9927 11.3568 13.2537C10.8388 13.1287 10.3388 12.9437 9.86477 12.7007C8.00577 11.7957 6.50477 10.2947 5.60077 8.43575C5.35777 7.96175 5.17277 7.46075 5.04777 6.94375C5.30877 6.66075 5.59177 6.39975 5.89377 6.16175C6.50777 5.64675 6.72277 5.45575 6.76677 5.20275C6.86077 4.66675 4.81877 1.44575 4.35977 0.896746C4.16777 0.668747 3.99277 0.515747 3.76877 0.515747C3.12077 0.515747 0.186768 4.14375 0.186768 4.61375C0.186768 4.65275 0.248766 8.42975 5.01877 13.2827C9.87177 18.0527 13.6488 18.1147 13.6868 18.1147C14.1578 18.1147 17.7858 15.1807 17.7858 14.5327C17.7858 14.3087 17.6328 14.1337 17.4038 13.9417Z" fill="#646363"/>
<path d="M13.3855 8.6875H14.6425C14.6395 5.9115 12.3905 3.6625 9.6145 3.6595V4.9165C11.6965 4.9185 13.3835 6.6055 13.3855 8.6875Z" fill="#646363"/>
<path d="M16.5282 8.6875H17.7852C17.7802 4.1765 14.1252 0.5215 9.6142 0.5165V1.7735C13.4312 1.7785 16.5232 4.8705 16.5282 8.6875Z" fill="#646363"/>
</g>
</g>
<defs>
<clipPath id="clip0_0_1">
<rect width="1920" height="7500" fill="white" transform="translate(-384.333 -6871)"/>
</clipPath>
<clipPath id="clip1_0_1">
<rect width="1920" height="7500" fill="white" transform="translate(-384.333 -6871)"/>
</clipPath>
</defs>
</svg>
