<svg width="40" height="40" viewBox="0 0 40 40" fill="none" xmlns="http://www.w3.org/2000/svg">
<g clip-path="url(#clip0_0_1)">
<g clip-path="url(#clip1_0_1)">
<path d="M20.4005 0.523052C9.66152 0.523052 0.923523 9.26105 0.923523 20.0001C0.923523 30.7391 9.66152 39.4771 20.4005 39.4771C23.8255 39.4771 27.1935 38.5761 30.1415 36.8701L27.7045 32.6541C25.4955 33.9321 22.9695 34.6081 20.4005 34.6081C12.3455 34.6081 5.79252 28.0551 5.79252 20.0001C5.79252 11.9451 12.3455 5.39205 20.4005 5.39205C28.4555 5.39205 35.0085 11.9451 35.0085 20.0001V22.1211C35.0085 23.7141 33.9845 24.8691 32.5735 24.8691C31.2315 24.8691 30.1385 23.7771 30.1385 22.4341V12.6961H26.7735C25.0605 11.2001 22.8475 10.2621 20.4005 10.2621C15.0305 10.2621 10.6615 14.6301 10.6615 20.0001C10.6615 25.3701 15.0305 29.7381 20.4005 29.7381C22.9575 29.7381 25.2695 28.7271 27.0085 27.1091C28.3495 28.7031 30.3325 29.7381 32.5735 29.7381C36.6685 29.7381 39.8775 26.3921 39.8775 22.1211V20.0001C39.8775 9.26105 31.1395 0.523052 20.4005 0.523052ZM20.4005 24.8691C17.7155 24.8691 15.5315 22.6851 15.5315 20.0001C15.5315 17.3151 17.7155 15.1311 20.4005 15.1311C23.0855 15.1311 25.2695 17.3151 25.2695 20.0001C25.2695 22.6851 23.0855 24.8691 20.4005 24.8691Z" fill="#001D49"/>
</g>
</g>
<defs>
<clipPath id="clip0_0_1">
<rect width="1920" height="7500" fill="white" transform="translate(-803.333 -4332)"/>
</clipPath>
<clipPath id="clip1_0_1">
<rect width="1920" height="7500" fill="white" transform="translate(-803.333 -4332)"/>
</clipPath>
</defs>
</svg>
