<svg width="19" height="14" viewBox="0 0 19 14" fill="none" xmlns="http://www.w3.org/2000/svg">
<g clip-path="url(#clip0_0_1)">
<g clip-path="url(#clip1_0_1)">
<path d="M15.8896 9.77711C15.7296 9.61711 15.5346 9.53711 15.3056 9.53711H11.3216L10.1536 10.7041C9.82155 11.0251 9.43255 11.1851 8.98555 11.1851C8.53955 11.1851 8.14955 11.0251 7.81755 10.7041L6.65855 9.53711H2.66555C2.43655 9.53711 2.24255 9.61711 2.08155 9.77711C1.92155 9.93711 1.84155 10.1321 1.84155 10.3611V13.1091C1.84155 13.3381 1.92155 13.5321 2.08155 13.6931C2.24255 13.8531 2.43655 13.9331 2.66555 13.9331H15.3056C15.5346 13.9331 15.7296 13.8531 15.8896 13.6931C16.0496 13.5321 16.1296 13.3381 16.1296 13.1091V10.3611C16.1296 10.1321 16.0496 9.93711 15.8896 9.77711ZM12.6696 12.6711C12.5606 12.7801 12.4316 12.8341 12.2826 12.8341C12.1346 12.8341 12.0056 12.7801 11.8966 12.6711C11.7876 12.5621 11.7336 12.4331 11.7336 12.2841C11.7336 12.1361 11.7876 12.0071 11.8966 11.8981C12.0056 11.7891 12.1346 11.7351 12.2826 11.7351C12.4316 11.7351 12.5606 11.7891 12.6696 11.8981C12.7786 12.0071 12.8326 12.1361 12.8326 12.2841C12.8326 12.4331 12.7786 12.5621 12.6696 12.6711ZM14.8676 12.6711C14.7586 12.7801 14.6306 12.8341 14.4816 12.8341C14.3326 12.8341 14.2036 12.7801 14.0946 12.6711C13.9866 12.5621 13.9316 12.4331 13.9316 12.2841C13.9316 12.1361 13.9866 12.0071 14.0946 11.8981C14.2036 11.7891 14.3326 11.7351 14.4816 11.7351C14.6306 11.7351 14.7586 11.7891 14.8676 11.8981C14.9766 12.0071 15.0306 12.1361 15.0306 12.2841C15.0306 12.4331 14.9766 12.5621 14.8676 12.6711Z" fill="#646363"/>
<path d="M8.5994 9.92343C8.7024 10.0324 8.8314 10.0864 8.9854 10.0864C9.1404 10.0864 9.2694 10.0324 9.3724 9.92343L13.2194 6.07643C13.3964 5.91043 13.4364 5.71043 13.3394 5.47543C13.2424 5.25243 13.0734 5.14043 12.8324 5.14043H10.6344V1.29343C10.6344 1.14443 10.5804 1.01543 10.4714 0.907426C10.3624 0.798426 10.2334 0.743425 10.0854 0.743425H7.8864C7.7374 0.743425 7.6094 0.798426 7.5004 0.907426C7.3914 1.01543 7.3374 1.14443 7.3374 1.29343V5.14043H5.1384C4.8984 5.14043 4.7294 5.25243 4.6324 5.47543C4.5344 5.71043 4.5744 5.91043 4.7524 6.07643L8.5994 9.92343Z" fill="#646363"/>
</g>
</g>
<defs>
<clipPath id="clip0_0_1">
<rect width="1920" height="7500" fill="white" transform="translate(-384.333 -7087)"/>
</clipPath>
<clipPath id="clip1_0_1">
<rect width="1920" height="7500" fill="white" transform="translate(-384.333 -7087)"/>
</clipPath>
</defs>
</svg>
