<svg width="20" height="19" viewBox="0 0 20 19" fill="none" xmlns="http://www.w3.org/2000/svg">
<g clip-path="url(#clip0_0_1)">
<g clip-path="url(#clip1_0_1)">
<path d="M1.38739 13.5022C1.04739 13.5022 0.770386 13.2252 0.770386 12.8852V6.09722C0.770386 5.75722 1.04739 5.47922 1.38739 5.47922H18.5844C18.9244 5.47922 19.2014 5.75722 19.2014 6.09722V12.8852C19.2014 13.2252 18.9244 13.5022 18.5844 13.5022H16.5224V10.7872C16.5224 9.90422 15.8054 9.18722 14.9224 9.18722H5.04839C4.16639 9.18722 3.44839 9.90422 3.44839 10.7872V13.5022H1.38739ZM15.5394 4.49722V2.25022C15.5394 2.06122 15.4634 1.89822 15.3184 1.77822L13.6744 0.410219C13.5594 0.31422 13.4304 0.268219 13.2814 0.268219H5.04639C4.70739 0.268219 4.43139 0.543221 4.43139 0.882219V4.49722H15.5394ZM5.04839 10.1702C4.70939 10.1702 4.43139 10.4472 4.43139 10.7872V18.0812C4.43139 18.4212 4.70939 18.6992 5.04839 18.6992H14.9224C15.2624 18.6992 15.5394 18.4212 15.5394 18.0812V10.7872C15.5394 10.4472 15.2624 10.1702 14.9224 10.1702H5.04839ZM7.13239 12.9032H12.8394C13.1104 12.9032 13.3304 12.6832 13.3304 12.4122C13.3304 12.1412 13.1104 11.9202 12.8394 11.9202H7.13239C6.86139 11.9202 6.64139 12.1412 6.64139 12.4122C6.64139 12.6832 6.86139 12.9032 7.13239 12.9032ZM7.13239 16.9482C6.86139 16.9482 6.64139 16.7282 6.64139 16.4562C6.64139 16.1852 6.86139 15.9652 7.13239 15.9652H12.8394C13.1104 15.9652 13.3304 16.1852 13.3304 16.4562C13.3304 16.7282 13.1104 16.9482 12.8394 16.9482H7.13239ZM7.13239 14.9262C6.86139 14.9262 6.64139 14.7052 6.64139 14.4342C6.64139 14.1632 6.86139 13.9432 7.13239 13.9432H12.8394C13.1104 13.9432 13.3304 14.1632 13.3304 14.4342C13.3304 14.7052 13.1104 14.9262 12.8394 14.9262H7.13239Z" fill="#646363"/>
</g>
</g>
<defs>
<clipPath id="clip0_0_1">
<rect width="1920" height="7500" fill="white" transform="translate(-383.333 -6925)"/>
</clipPath>
<clipPath id="clip1_0_1">
<rect width="1920" height="7500" fill="white" transform="translate(-383.333 -6925)"/>
</clipPath>
</defs>
</svg>
