<svg width="20" height="19" viewBox="0 0 20 19" fill="none" xmlns="http://www.w3.org/2000/svg">
<g clip-path="url(#clip0_0_1)">
<g clip-path="url(#clip1_0_1)">
<path d="M9.98575 0.0578003C4.84775 0.0578003 0.666748 4.2388 0.666748 9.3768C0.666748 14.5158 4.84775 18.6958 9.98575 18.6958C11.6247 18.6958 13.2357 18.2648 14.6467 17.4488L13.4807 15.4318C12.4237 16.0428 11.2147 16.3658 9.98575 16.3658C6.13175 16.3658 2.99675 13.2308 2.99675 9.3768C2.99675 5.5228 6.13175 2.3878 9.98575 2.3878C13.8397 2.3878 16.9747 5.5228 16.9747 9.3768V10.3918C16.9747 11.1538 16.4857 11.7068 15.8097 11.7068C15.1677 11.7068 14.6457 11.1838 14.6457 10.5418V5.8818H13.0347C12.2157 5.1668 11.1567 4.7178 9.98575 4.7178C7.41675 4.7178 5.32575 6.8078 5.32575 9.3768C5.32575 11.9458 7.41675 14.0368 9.98575 14.0368C11.2087 14.0368 12.3157 13.5528 13.1477 12.7788C13.7887 13.5408 14.7377 14.0368 15.8097 14.0368C17.7697 14.0368 19.3047 12.4358 19.3047 10.3918V9.3768C19.3047 4.2388 15.1237 0.0578003 9.98575 0.0578003ZM9.98575 11.7068C8.70075 11.7068 7.65575 10.6618 7.65575 9.3768C7.65575 8.0918 8.70075 7.0468 9.98575 7.0468C11.2707 7.0468 12.3157 8.0918 12.3157 9.3768C12.3157 10.6618 11.2707 11.7068 9.98575 11.7068Z" fill="#646363"/>
</g>
</g>
<defs>
<clipPath id="clip0_0_1">
<rect width="1920" height="7500" fill="white" transform="translate(-383.333 -6979)"/>
</clipPath>
<clipPath id="clip1_0_1">
<rect width="1920" height="7500" fill="white" transform="translate(-383.333 -6979)"/>
</clipPath>
</defs>
</svg>
