<svg width="19" height="14" viewBox="0 0 19 14" fill="none" xmlns="http://www.w3.org/2000/svg">
<g clip-path="url(#clip0_0_1)">
<g clip-path="url(#clip1_0_1)">
<path d="M14.0262 0.0213242H3.94524C2.90124 0.0213242 2.05524 0.867325 2.05524 1.91132V11.9923C2.05524 13.0363 2.90124 13.8823 3.94524 13.8823H14.0262C15.0702 13.8823 15.9162 13.0363 15.9162 11.9923V1.91132C15.9162 0.867325 15.0702 0.0213242 14.0262 0.0213242ZM6.78024 10.9903C6.78124 11.1523 6.65024 11.2833 6.48924 11.2833H5.24324C5.08224 11.2843 4.95024 11.1533 4.95024 10.9923V10.9903V5.77032C4.95024 5.60932 5.08124 5.47732 5.24324 5.47732H6.48824C6.65024 5.47832 6.78024 5.60932 6.78024 5.77032V10.9903ZM5.86524 4.98332C5.21324 4.98332 4.68424 4.45432 4.68424 3.80132C4.68424 3.14932 5.21324 2.62032 5.86524 2.62032C6.51824 2.62032 7.04624 3.14932 7.04624 3.80132C7.04624 4.45432 6.51824 4.98332 5.86524 4.98332ZM13.2892 11.0113C13.2892 11.1593 13.1692 11.2803 13.0212 11.2803H13.0192H11.6812C11.5322 11.2813 11.4122 11.1613 11.4112 11.0133V11.0113V8.56532C11.4112 8.20032 11.5182 6.96532 10.4562 6.96532C9.63324 6.96532 9.46524 7.81032 9.43224 8.19032V11.0143C9.43224 11.1613 9.31424 11.2813 9.16724 11.2833H7.87324C7.72524 11.2833 7.60524 11.1633 7.60524 11.0153V11.0143V5.74832C7.60424 5.59932 7.72424 5.47932 7.87324 5.47832H9.16724C9.31524 5.47832 9.43624 5.59932 9.43624 5.74832V6.20332C9.74224 5.74432 10.1942 5.39132 11.1612 5.39132C13.3012 5.39132 13.2872 7.39032 13.2872 8.48832L13.2892 11.0113Z" fill="#646363"/>
</g>
</g>
<defs>
<clipPath id="clip0_0_1">
<rect width="1920" height="7500" fill="white" transform="translate(-384.333 -7035)"/>
</clipPath>
<clipPath id="clip1_0_1">
<rect width="1920" height="7500" fill="white" transform="translate(-384.333 -7035)"/>
</clipPath>
</defs>
</svg>
