<svg width="40" height="40" viewBox="0 0 40 40" fill="none" xmlns="http://www.w3.org/2000/svg">
<g clip-path="url(#clip0_0_1)">
<g clip-path="url(#clip1_0_1)">
<path d="M36.8824 29.6681C35.7344 28.7051 29.0004 24.4411 27.8814 24.6371C27.3564 24.7301 26.9544 25.1781 25.8784 26.4611C25.3804 27.0931 24.8344 27.6851 24.2434 28.2311C23.1624 27.9701 22.1154 27.5821 21.1254 27.0751C17.2414 25.1841 14.1034 22.0451 12.2134 18.1611C11.7064 17.1701 11.3184 16.1231 11.0574 15.0421C11.6034 14.4521 12.1954 13.9051 12.8274 13.4081C14.1094 12.3321 14.5584 11.9331 14.6514 11.4051C14.8474 10.2831 10.5794 3.55211 9.62044 2.40411C9.21844 1.92811 8.85344 1.60912 8.38544 1.60912C7.03044 1.60912 0.898438 9.19111 0.898438 10.1741C0.898438 10.2541 1.02944 18.1471 10.9984 28.2901C21.1414 38.2591 29.0344 38.3911 29.1144 38.3911C30.0974 38.3911 37.6794 32.2591 37.6794 30.9031C37.6794 30.4351 37.3604 30.0701 36.8824 29.6681Z" fill="#001D49"/>
<path d="M28.4844 18.6865H31.1114C31.1054 12.8855 26.4034 8.18352 20.6024 8.17752V10.8045C24.9534 10.8095 28.4804 14.3355 28.4844 18.6865Z" fill="#001D49"/>
<path d="M35.0525 18.6865H37.6795C37.6685 9.25952 30.0295 1.62052 20.6025 1.60952V4.23652C28.5795 4.24552 35.0435 10.7095 35.0525 18.6865Z" fill="#001D49"/>
</g>
</g>
<defs>
<clipPath id="clip0_0_1">
<rect width="1920" height="7500" fill="white" transform="translate(-402.333 -4332)"/>
</clipPath>
<clipPath id="clip1_0_1">
<rect width="1920" height="7500" fill="white" transform="translate(-402.333 -4332)"/>
</clipPath>
</defs>
</svg>
