<svg width="19" height="24" viewBox="0 0 19 24" fill="none" xmlns="http://www.w3.org/2000/svg">
<g clip-path="url(#clip0_0_1)">
<g clip-path="url(#clip1_0_1)">
<path d="M5.24499 17.4347C6.24699 19.3257 7.06499 20.6637 7.06499 20.6637C7.47399 21.3327 8.20199 21.7417 8.98599 21.7417C9.76999 21.7417 10.498 21.3327 10.907 20.6637C10.907 20.6637 11.725 19.3257 12.727 17.4347C13.173 17.5887 13.571 17.7677 13.909 17.9667C14.873 18.5357 15.364 19.2937 15.364 20.0527C15.364 20.8117 14.873 21.5697 13.909 22.1387C12.798 22.7957 11.008 23.2417 8.98599 23.2417C6.96299 23.2417 5.17399 22.7957 4.06299 22.1387C3.09899 21.5697 2.60699 20.8117 2.60699 20.0527C2.60699 19.2937 3.09899 18.5357 4.06299 17.9667C4.40099 17.7677 4.79899 17.5887 5.24499 17.4347ZM6.26199 16.1397C5.54899 14.7647 4.77999 13.1597 4.16799 11.5947C3.46599 9.8007 2.98299 8.0537 2.98299 6.7337C2.98299 3.4197 5.67299 0.729698 8.98599 0.729698C12.299 0.729698 14.989 3.4197 14.989 6.7337C14.989 8.0537 14.505 9.8007 13.803 11.5947C13.196 13.1517 12.43 14.7477 11.721 16.1177C11.717 16.1267 11.713 16.1347 11.71 16.1437C10.603 18.2797 9.63899 19.8617 9.62699 19.8817C9.48799 20.1047 9.24799 20.2407 8.98599 20.2407C8.72299 20.2407 8.48299 20.1047 8.34399 19.8817C8.33299 19.8627 7.37599 18.2907 6.27699 16.1657C6.26899 16.1567 6.26599 16.1477 6.26199 16.1397ZM8.98599 3.7317C7.53699 3.7317 6.35899 4.9087 6.35899 6.3577C6.35899 7.8077 7.53699 8.9847 8.98599 8.9847C10.434 8.9847 11.612 7.8077 11.612 6.3577C11.612 4.9087 10.434 3.7317 8.98599 3.7317Z" fill="#646363"/>
</g>
</g>
<defs>
<clipPath id="clip0_0_1">
<rect width="1920" height="7500" fill="white" transform="translate(-384.333 -6783)"/>
</clipPath>
<clipPath id="clip1_0_1">
<rect width="1920" height="7500" fill="white" transform="translate(-384.333 -6783)"/>
</clipPath>
</defs>
</svg>
