<svg width="266" height="62" viewBox="0 0 266 62" fill="none" xmlns="http://www.w3.org/2000/svg">
<g clip-path="url(#clip0_1_529)">
<path d="M-1270.33 758.976H649.666V-63.024H-1270.33V758.976Z" fill="#666881"/>
<path d="M48.8346 1.23333H42.8726V13.1993C37.7146 11.4473 32.4586 10.2803 26.9126 10.2803C22.7256 10.2803 18.4426 10.6703 18.4426 13.7843C18.4426 19.0403 46.8656 13.0073 46.8656 32.0813C46.8656 46.5873 30.3176 50.4823 18.7346 50.4823C12.3946 50.4823 5.97862 49.5473 -0.23938 48.1043V50.3113C-0.23938 50.3113 -0.23938 61.2153 10.6656 61.2153H48.8346C48.8346 61.2153 59.7406 61.2153 59.7406 50.3113V12.1373C59.7406 12.1373 59.7406 1.23333 48.8346 1.23333ZM24.4766 34.3223C24.4766 29.5023 7.45662 32.0193 -0.23938 24.3323V34.2373C4.27162 36.3543 10.1386 37.6313 15.5236 37.6313C19.6106 37.6313 24.4766 36.8533 24.4766 34.3223Z" fill="#BA4E97"/>
<path d="M90.2111 30.5127C94.3041 31.5507 98.5701 32.2417 102.778 32.2417C109.638 32.2417 119.437 29.9367 119.437 21.3477C119.437 10.0497 102.605 13.6237 102.605 10.5107C102.605 8.6657 105.141 8.4357 107.619 8.4357C110.905 8.4357 114.018 9.1277 117.073 10.1647V2.0947C113.499 1.3457 109.868 0.826698 106.236 0.826698C99.0881 0.826698 89.3461 2.3257 89.3461 10.9717C89.3461 22.5577 106.179 18.9847 106.179 22.6737C106.179 24.1727 103.296 24.6337 100.875 24.6337C97.1291 24.6337 92.9781 23.5967 90.2111 21.9237V30.5127Z" fill="white"/>
<path d="M125.563 10.9722C128.446 9.53119 132.135 8.43619 135.593 8.43619C139.225 8.43619 143.203 8.89719 143.26 12.7582C141.934 12.6432 139.628 12.3552 137.611 12.3552C130.406 12.3552 122.105 14.1992 122.105 23.4222C122.105 29.7062 127.523 32.2422 133.114 32.2422C137.207 32.2422 140.897 30.6292 142.915 27.2272H143.03V31.5502H156.519V13.2782C156.519 2.32519 146.43 0.827187 138.13 0.827187C132.481 0.827187 129.887 1.34619 125.563 2.55619V10.9722ZM143.26 19.2732C143.26 21.8672 141.761 24.6342 138.764 24.6342C136.516 24.6342 135.363 23.8262 135.363 21.7522C135.363 18.6382 138.821 18.3502 141.819 18.3502H143.26V19.2732Z" fill="white"/>
<path d="M195.721 1.51819H181.196V18.8112C181.196 20.5402 181.196 22.9052 178.6 22.9052C176.065 22.9052 176.065 20.5402 176.065 18.8112V1.51819H161.538V22.3852C161.538 28.2072 164.362 32.2422 172.086 32.2422C176.18 32.2422 180.158 30.5712 181.887 26.3632H182.002V31.5502H195.721V1.51819Z" fill="white"/>
<path d="M214.47 13.6817C214.297 11.3177 215.046 7.7447 218.389 7.7447C221.675 7.7447 222.021 11.3757 222.021 13.6817H214.47ZM234.588 20.0227V18.2357C234.588 8.0897 230.496 0.8277 218.851 0.8277C206.687 0.8277 200.232 5.8997 200.232 15.9867C200.232 26.3637 206.687 32.2417 218.851 32.2417C223.924 32.2417 228.534 31.7237 232.397 30.5127V22.7317C230.092 23.9417 226.517 24.6347 222.54 24.6347C218.274 24.6347 214.757 23.7697 214.527 20.0227H234.588Z" fill="white"/>
<path d="M238.74 1.51829V31.5503H253.265V20.6563C253.265 16.2173 256.667 12.7013 260.703 12.7013C262.028 12.7013 263.296 12.8743 263.987 13.1623V1.11429C263.412 0.942293 262.488 0.827293 261.624 0.827293C257.071 0.827293 254.188 4.05429 252.459 8.32029H252.344V1.51829H238.74Z" fill="white"/>
<path d="M94.1836 47.4139H90.1506V61.146H94.1836V47.4139ZM90.5016 44.949C90.8966 45.235 91.4596 45.3781 92.1926 45.3781C92.9016 45.3781 93.4536 45.235 93.8486 44.949C94.2437 44.6639 94.4407 44.2729 94.4407 43.776C94.4407 43.254 94.2437 42.853 93.8486 42.572C93.4536 42.29 92.9016 42.149 92.1926 42.149C91.4596 42.149 90.8966 42.29 90.5016 42.572C90.1066 42.853 89.9097 43.254 89.9097 43.776C89.9097 44.2729 90.1066 44.6639 90.5016 44.949ZM118.233 52.194C118.233 48.842 115.955 47.166 111.401 47.166C110.12 47.166 108.953 47.344 107.9 47.699C106.847 48.0551 106.035 48.5601 105.463 49.214H105.257L104.69 47.4139H101.532V61.146H105.566V54.3051C105.566 52.5909 105.961 51.371 106.75 50.642C107.54 49.9139 108.787 49.549 110.492 49.549C111.773 49.549 112.709 49.8101 113.298 50.332C113.887 50.853 114.182 51.644 114.182 52.703V61.146H118.233V52.194ZM136.983 59.3459H137.172L137.875 61.146H141.034V41.827H136.983V46.83C136.983 47.401 137.08 48.1801 137.275 49.165H137.069C135.764 47.832 133.865 47.166 131.37 47.166C128.99 47.166 127.128 47.793 125.784 49.047C124.439 50.301 123.767 52.053 123.767 54.3051C123.767 56.548 124.43 58.291 125.758 59.532C127.085 60.774 128.933 61.395 131.302 61.395C133.796 61.395 135.69 60.712 136.983 59.3459ZM129.036 57.837C128.292 57.0389 127.921 55.8781 127.921 54.355C127.921 52.8149 128.304 51.629 129.07 50.797C129.837 49.965 130.93 49.549 132.349 49.549C134.008 49.549 135.226 49.9139 136.005 50.642C136.783 51.371 137.172 52.6 137.172 54.33V54.74C137.149 56.254 136.76 57.349 136.005 58.024C135.249 58.698 134.042 59.036 132.383 59.036C130.895 59.036 129.78 58.636 129.036 57.837ZM152.24 47.4139H148.207V61.146H152.24V47.4139ZM148.558 44.949C148.953 45.235 149.517 45.3781 150.249 45.3781C150.958 45.3781 151.511 45.235 151.905 44.949C152.3 44.6639 152.498 44.2729 152.498 43.776C152.498 43.254 152.3 42.853 151.905 42.572C151.511 42.29 150.958 42.149 150.249 42.149C149.517 42.149 148.953 42.29 148.558 42.572C148.164 42.853 147.966 43.254 147.966 43.776C147.966 44.2729 148.164 44.6639 148.558 44.949ZM168.274 61.146L175.517 47.4139H171.226L167.364 55.3979C166.666 56.97 166.266 58.0551 166.162 58.651H166.025C165.888 57.823 165.487 56.739 164.824 55.3979L160.962 47.4139H156.705L163.914 61.146H168.274ZM184.016 47.4139H179.983V61.146H184.016V47.4139ZM180.334 44.949C180.729 45.235 181.292 45.3781 182.025 45.3781C182.734 45.3781 183.286 45.235 183.681 44.949C184.076 44.6639 184.273 44.2729 184.273 43.776C184.273 43.254 184.076 42.853 183.681 42.572C183.286 42.29 182.734 42.149 182.025 42.149C181.292 42.149 180.729 42.29 180.334 42.572C179.939 42.853 179.742 43.254 179.742 43.776C179.742 44.2729 179.939 44.6639 180.334 44.949ZM203.448 59.3459H203.636L204.34 61.146H207.498V41.827H203.448V46.83C203.448 47.401 203.545 48.1801 203.739 49.165H203.533C202.229 47.832 200.329 47.166 197.835 47.166C195.455 47.166 193.593 47.793 192.248 49.047C190.904 50.301 190.231 52.053 190.231 54.3051C190.231 56.548 190.895 58.291 192.222 59.532C193.55 60.774 195.398 61.395 197.766 61.395C200.261 61.395 202.154 60.712 203.448 59.3459ZM195.501 57.837C194.757 57.0389 194.385 55.8781 194.385 54.355C194.385 52.8149 194.768 51.629 195.535 50.797C196.302 49.965 197.394 49.549 198.813 49.549C200.472 49.549 201.691 49.9139 202.469 50.642C203.247 51.371 203.636 52.6 203.636 54.33V54.74C203.613 56.254 203.224 57.349 202.469 58.024C201.714 58.698 200.507 59.036 198.848 59.036C197.36 59.036 196.244 58.636 195.501 57.837ZM231.058 61.146V47.4139H227.008V54.255C227.008 55.9771 226.61 57.204 225.815 57.937C225.019 58.6689 223.775 59.036 222.082 59.036C220.812 59.036 219.879 58.7729 219.284 58.2469C218.689 57.722 218.392 56.933 218.392 55.882V47.4139H214.324V56.391C214.324 58.071 214.89 59.325 216.023 60.153C217.156 60.981 218.872 61.395 221.172 61.395C222.499 61.395 223.681 61.212 224.716 60.848C225.752 60.484 226.55 59.983 227.111 59.3459H227.317L227.883 61.146H231.058ZM252.975 61.146V51.896C252.975 50.266 252.36 49.069 251.13 48.308C249.9 47.546 248.078 47.166 245.663 47.166C244.576 47.166 243.42 47.267 242.196 47.47C240.972 47.673 239.845 47.969 238.815 48.358L240.119 50.443C240.943 50.162 241.802 49.918 242.694 49.7111C243.586 49.504 244.519 49.401 245.492 49.401C246.682 49.401 247.56 49.618 248.126 50.052C248.693 50.4871 248.976 51.1429 248.976 52.02V52.7531L245.698 52.827C242.722 52.894 240.508 53.287 239.055 54.007C237.602 54.7271 236.875 55.795 236.875 57.21C236.875 58.543 237.399 59.574 238.446 60.302C239.493 61.031 240.949 61.395 242.814 61.395C244.267 61.395 245.457 61.244 246.384 60.941C247.311 60.639 248.232 60.0699 249.147 59.234H249.285L250.092 61.146H252.975ZM241.819 58.657C241.315 58.322 241.063 57.848 241.063 57.235C241.063 56.391 241.495 55.764 242.359 55.354C243.223 54.944 244.605 54.715 246.504 54.665L248.942 54.59V55.782C248.942 56.85 248.498 57.6801 247.611 58.272C246.724 58.864 245.549 59.16 244.084 59.16C243.077 59.16 242.322 58.9919 241.819 58.657ZM264.044 41.827H260.011V61.147H264.044V41.827Z" fill="white"/>
</g>
<defs>
<clipPath id="clip0_1_529">
<rect width="1920" height="7500" fill="white" transform="translate(-1270.33 -5842)"/>
</clipPath>
</defs>
</svg>
