<svg width="267" height="105" viewBox="0 0 267 105" fill="none" xmlns="http://www.w3.org/2000/svg">
<g clip-path="url(#clip0_1_529)">
<path d="M-1269.33 914.976H650.666V-59.485H-1269.33V914.976Z" fill="#00294D"/>
<path d="M50.0441 0.475868H44.0571V12.4929C38.8771 10.7339 33.5981 9.56187 28.0281 9.56187C23.8231 9.56187 19.5221 9.95387 19.5221 13.0809C19.5221 18.3599 48.0661 12.2999 48.0661 31.4559C48.0661 46.0239 31.4481 49.9349 19.8161 49.9349C13.4491 49.9349 7.00511 48.9959 0.761108 47.5469V49.7639C0.761108 49.7639 0.761108 60.7139 11.7121 60.7139H50.0441C50.0441 60.7139 60.9961 60.7139 60.9961 49.7639V11.4269C60.9961 11.4269 60.9961 0.475868 50.0441 0.475868ZM25.5821 33.7059C25.5821 28.8659 8.48911 31.3939 0.761108 23.6739V33.6209C5.29111 35.7469 11.1831 37.0289 16.5911 37.0289C20.6951 37.0289 25.5821 36.2489 25.5821 33.7059Z" fill="#0083A0"/>
<path d="M225.218 45.6841H228.694L228.473 47.6361H228.583C229.466 47.0481 231.617 45.4341 237.576 45.4341C245.851 45.4341 249.162 47.7821 249.162 51.0341C249.162 54.2011 245.3 56.6351 237.576 56.6351C233.163 56.6351 230.514 55.9431 228.804 54.5571H228.694V60.7881H225.218V45.6841ZM237.024 46.5671C230.845 46.5671 228.694 49.0831 228.694 51.0341C228.694 52.9851 230.845 55.5021 237.024 55.5021C243.645 55.5021 245.355 53.1111 245.355 51.0341C245.355 48.9561 243.645 46.5671 237.024 46.5671Z" fill="white"/>
<path d="M127.832 45.4343C136.935 45.4343 140.963 48.1183 140.963 51.0343C140.963 53.9503 136.935 56.6353 127.832 56.6353C118.729 56.6353 114.701 53.9503 114.701 51.0343C114.701 48.1183 118.729 45.4343 127.832 45.4343ZM127.832 55.5023C133.901 55.5023 137.155 53.5103 137.155 51.0343C137.155 48.5593 133.901 46.5673 127.832 46.5673C121.763 46.5673 118.508 48.5593 118.508 51.0343C118.508 53.5103 121.763 55.5023 127.832 55.5023Z" fill="white"/>
<path d="M145.154 48.4533C145.154 47.6353 145.154 46.7963 144.934 45.9363H148.3V47.8443H148.41C149.569 46.8793 151.665 45.6843 157.513 45.6843C164.465 45.6843 167.113 47.4453 167.113 49.7963V56.6353H163.638V50.1323C163.638 48.1183 161.761 46.8173 156.961 46.8173C150.616 46.8173 148.631 48.9353 148.631 50.7193V56.6353H145.154V48.4533Z" fill="white"/>
<path d="M111.143 47.1113C109.266 46.7963 107.005 46.5673 105.129 46.5673C98.3431 46.5673 94.5361 48.4343 94.5361 51.0343C94.5361 53.4673 98.3981 55.5023 104.743 55.5023C106.95 55.5023 108.991 55.3133 111.087 55.0193L111.418 56.2573C109.046 56.5733 106.84 56.6353 104.19 56.6353C95.1421 56.6353 90.7291 54.0133 90.7291 51.0343C90.7291 47.7413 96.3011 45.4343 104.632 45.4343C107.997 45.4343 110.425 45.7273 111.418 45.8523L111.143 47.1113Z" fill="white"/>
<path d="M191.798 47.1113C189.921 46.7963 187.66 46.5673 185.784 46.5673C178.998 46.5673 175.191 48.4343 175.191 51.0343C175.191 53.4673 179.053 55.5023 185.398 55.5023C187.605 55.5023 189.646 55.3133 191.742 55.0193L192.073 56.2573C189.701 56.5733 187.495 56.6353 184.845 56.6353C175.797 56.6353 171.384 54.0133 171.384 51.0343C171.384 47.7413 176.956 45.4343 185.287 45.4343C188.652 45.4343 191.08 45.7273 192.073 45.8523L191.798 47.1113Z" fill="white"/>
<path d="M265.913 46.8168H259.513V53.7408C259.513 54.7058 260.452 55.5018 263.265 55.5018C264.589 55.5018 265.472 55.3978 266.466 55.2498L266.686 56.3418C265.858 56.4668 264.148 56.6348 262.437 56.6348C256.259 56.6348 256.037 55.0198 256.037 53.0698V46.8168H250.521V45.6838H256.037V43.1048L259.513 42.6428V45.6838H265.913V46.8168Z" fill="white"/>
<path d="M219.934 51.0338C219.934 47.7828 216.625 45.4338 208.348 45.4338C206.805 45.4338 205.501 45.5618 204.379 45.7458C199.073 46.3568 195.672 48.4848 195.672 51.0338C195.672 53.4718 199.37 55.9548 205.064 56.4488C206.07 56.5598 207.138 56.6348 208.348 56.6348C214.618 56.6348 218.297 55.0198 219.478 52.7218H215.689C214.912 54.1078 212.938 55.2928 208.825 55.4668C203.011 55.2858 199.48 53.3518 199.479 51.0348H216.127L219.934 51.0338ZM215.979 50.0338H199.693C200.501 48.1188 203.719 46.7938 208.871 46.6098C213.612 46.8218 215.492 48.3828 215.979 50.0338Z" fill="white"/>
<path d="M91.5972 29.8802C95.7072 30.9222 99.9912 31.6162 104.218 31.6162C111.107 31.6162 120.948 29.3012 120.948 20.6762C120.948 9.32921 104.044 12.9192 104.044 9.79321C104.044 7.94021 106.591 7.70921 109.08 7.70921C112.38 7.70921 115.506 8.40321 118.574 9.44521V1.34021C114.985 0.588211 111.338 0.0672112 107.691 0.0672112C100.512 0.0672112 90.7292 1.57221 90.7292 10.2562C90.7292 21.8912 107.633 18.3022 107.633 22.0072C107.633 23.5132 104.738 23.9762 102.307 23.9762C98.5442 23.9762 94.3762 22.9342 91.5972 21.2552V29.8802Z" fill="white"/>
<path d="M127.1 10.2557C129.995 8.8087 133.7 7.7087 137.173 7.7087C140.82 7.7087 144.815 8.1717 144.873 12.0497C143.542 11.9347 141.225 11.6447 139.2 11.6447C131.964 11.6447 123.627 13.4967 123.627 22.7597C123.627 29.0697 129.069 31.6167 134.684 31.6167C138.794 31.6167 142.499 29.9967 144.526 26.5797H144.641V30.9217H158.189V12.5717C158.189 1.5717 148.057 0.0676994 139.721 0.0676994C134.047 0.0676994 131.443 0.588699 127.1 1.8037V10.2557ZM144.873 18.5917C144.873 21.1967 143.367 23.9757 140.357 23.9757C138.1 23.9757 136.942 23.1647 136.942 21.0817C136.942 17.9547 140.415 17.6657 143.425 17.6657H144.873V18.5917Z" fill="white"/>
<path d="M197.558 0.762188H182.971V18.1292C182.971 19.8662 182.971 22.2402 180.364 22.2402C177.818 22.2402 177.818 19.8662 177.818 18.1292V0.762188H163.229V21.7192C163.229 27.5652 166.065 31.6172 173.822 31.6172C177.933 31.6172 181.929 29.9392 183.665 25.7132H183.781V30.9222H197.558V0.762188Z" fill="white"/>
<path d="M216.386 12.9772C216.213 10.6032 216.965 7.01419 220.322 7.01419C223.622 7.01419 223.97 10.6612 223.97 12.9772H216.386ZM236.59 19.3452V17.5502C236.59 7.36119 232.48 0.0681877 220.786 0.0681877C208.57 0.0681877 202.087 5.16219 202.087 15.2922C202.087 25.7132 208.57 31.6172 220.786 31.6172C225.881 31.6172 230.51 31.0962 234.39 29.8802V22.0652C232.074 23.2812 228.485 23.9772 224.491 23.9772C220.207 23.9772 216.675 23.1082 216.444 19.3452H236.59Z" fill="white"/>
<path d="M240.76 0.762363V30.9224H255.347V19.9814C255.347 15.5244 258.764 11.9934 262.817 11.9934C264.148 11.9934 265.421 12.1674 266.115 12.4564V0.356363C265.538 0.183363 264.61 0.0683632 263.742 0.0683632C259.169 0.0683632 256.274 3.30936 254.537 7.59336H254.422V0.762363H240.76Z" fill="white"/>
<path d="M93.9916 84.5171H92.7527V104.394H93.9916V84.5171ZM107.774 84.5171H106.56V98.4121C106.56 99.4089 106.593 100.651 106.661 102.137H106.585L99.6426 84.5171H98.0376V104.394H99.2506V90.1321C99.2506 88.99 99.2007 87.803 99.0996 86.5701H99.2007L106.193 104.394H107.774V84.5171ZM121.556 84.5171H120.342V98.4121C120.342 99.4089 120.375 100.651 120.443 102.137H120.367L113.425 84.5171H111.82V104.394H113.033V90.1321C113.033 88.99 112.983 87.803 112.882 86.5701H112.983L119.975 104.394H121.556V84.5171ZM134.282 86.876C133.375 85.113 132.063 84.2319 130.343 84.2319C128.556 84.2319 127.216 85.0701 126.322 86.7471C125.429 88.4241 124.982 90.9751 124.982 94.4009C124.982 97.6819 125.433 100.213 126.335 101.994C127.237 103.775 128.56 104.666 130.305 104.666C132.033 104.666 133.354 103.782 134.269 102.015C135.184 100.247 135.641 97.719 135.641 94.428C135.641 91.156 135.188 88.6389 134.282 86.876ZM127.29 87.7871C127.968 86.269 128.986 85.51 130.343 85.51C131.666 85.51 132.665 86.26 133.34 87.76C134.014 89.26 134.351 91.4829 134.351 94.428C134.351 97.4109 134.008 99.6489 133.321 101.145C132.634 102.64 131.628 103.388 130.305 103.388C128.99 103.388 127.989 102.633 127.302 101.124C126.615 99.615 126.272 97.3831 126.272 94.428C126.272 91.519 126.611 89.3049 127.29 87.7871ZM142.475 99.9141C142.403 100.263 142.33 100.692 142.254 101.199C142.178 101.707 142.106 102.223 142.039 102.749C141.963 101.988 141.887 101.355 141.811 100.852C141.735 100.349 141.579 99.563 141.343 98.4939L138.334 84.5171H137.044L141.394 104.394H142.772L147.147 84.5171H145.87C143.678 94.4331 142.547 99.5649 142.475 99.9141ZM157.427 104.394L152.875 84.5171H151.598L147.147 104.394H148.437L150.042 97.188H154.531L156.162 104.394H157.427ZM150.283 95.842L151.863 88.4331C152.023 87.644 152.141 86.856 152.217 86.0669C152.31 86.8101 152.44 87.5991 152.609 88.4331L154.24 95.842H150.283ZM162.522 85.7949H166.201V84.5171H157.604V85.7949H161.283V104.394H162.522V85.7949ZM169.678 84.5171H168.439V104.394H169.678V84.5171ZM183.46 84.5171H182.247V98.4121C182.247 99.4089 182.28 100.651 182.348 102.137H182.272L175.33 84.5171H173.724V104.394H174.938V90.1321C174.938 88.99 174.888 87.803 174.787 86.5701H174.888L181.88 104.394H183.46V84.5171ZM193.588 95.6521H196.383V102.885C195.548 103.22 194.541 103.388 193.361 103.388C191.717 103.388 190.446 102.606 189.548 101.043C188.651 99.479 188.202 97.2749 188.202 94.428C188.202 91.519 188.646 89.301 189.536 87.7729C190.425 86.2461 191.734 85.4819 193.462 85.4819C194.541 85.4819 195.662 85.8811 196.825 86.679L197.419 85.51C196.18 84.658 194.861 84.2319 193.462 84.2319C191.38 84.2319 189.763 85.1201 188.613 86.896C187.462 88.6731 186.887 91.175 186.887 94.4009C186.887 97.6189 187.443 100.134 188.556 101.947C189.669 103.76 191.232 104.666 193.247 104.666C194.764 104.666 196.226 104.372 197.634 103.782V94.374H193.588V95.6521ZM212.94 85.8899C212.105 84.9751 210.786 84.5171 208.982 84.5171H206.453V104.394H207.693V96.1819H209.008C210.719 96.1819 212.011 95.7019 212.883 94.741C213.755 93.781 214.192 92.2759 214.192 90.2271C214.192 88.251 213.774 86.8059 212.94 85.8899ZM207.693 85.741H209.071C210.386 85.741 211.357 86.0869 211.985 86.781C212.613 87.4741 212.927 88.623 212.927 90.2271C212.927 91.9131 212.624 93.123 212.017 93.8569C211.41 94.592 210.381 94.959 208.932 94.959H207.693V85.741ZM223.776 103.116H218.314V94.6189H223.472V93.3411H218.314V85.7949H223.776V84.5171H217.074V104.394H223.776V103.116ZM235.718 86.876C234.812 85.113 233.499 84.2319 231.779 84.2319C229.992 84.2319 228.652 85.0701 227.759 86.7471C226.865 88.4241 226.418 90.9751 226.418 94.4009C226.418 97.6819 226.869 100.213 227.771 101.994C228.673 103.775 229.997 104.666 231.741 104.666C233.469 104.666 234.791 103.782 235.705 102.015C236.62 100.247 237.077 97.719 237.077 94.428C237.077 91.156 236.624 88.6389 235.718 86.876ZM228.726 87.7871C229.404 86.269 230.422 85.51 231.779 85.51C233.103 85.51 234.102 86.26 234.776 87.76C235.45 89.26 235.788 91.4829 235.788 94.428C235.788 97.4109 235.444 99.6489 234.757 101.145C234.07 102.64 233.065 103.388 231.741 103.388C230.427 103.388 229.425 102.633 228.739 101.124C228.051 99.615 227.708 97.3831 227.708 94.428C227.708 91.519 228.047 89.3049 228.726 87.7871ZM246.99 85.8899C246.156 84.9751 244.836 84.5171 243.032 84.5171H240.504V104.394H241.743V96.1819H243.058C244.769 96.1819 246.061 95.7019 246.933 94.741C247.806 93.781 248.242 92.2759 248.242 90.2271C248.242 88.251 247.825 86.8059 246.99 85.8899ZM241.743 85.741H243.121C244.436 85.741 245.407 86.0869 246.036 86.781C246.663 87.4741 246.977 88.623 246.977 90.2271C246.977 91.9131 246.674 93.123 246.067 93.8569C245.46 94.592 244.432 94.959 242.982 94.959H241.743V85.741ZM257.573 104.394V103.116H252.364V84.5171H251.125V104.394H257.573ZM266.816 103.116H261.354V94.6189H266.512V93.3411H261.354V85.7949H266.816V84.5171H260.115V104.394H266.816V103.116Z" fill="white"/>
</g>
<defs>
<clipPath id="clip0_1_529">
<rect width="1920" height="7500" fill="white" transform="translate(-1269.33 -4864)"/>
</clipPath>
</defs>
</svg>
