<svg width="158" height="36" viewBox="0 0 158 36" fill="none" xmlns="http://www.w3.org/2000/svg">
<g clip-path="url(#clip0_1_769)">
<path d="M29.3546 0.743767H25.7986V7.77277C22.7396 6.78077 19.6796 6.03577 16.3726 6.03577C13.8916 6.03577 11.4106 6.28477 11.4106 8.10277C11.4106 11.1628 28.1966 7.60677 28.1966 18.9358C28.1966 27.4528 18.4396 29.7678 11.5766 29.7678C7.8556 29.7678 4.05161 29.2718 0.413605 28.3618V29.6848C0.413605 29.6848 0.413605 36.1348 6.86361 36.1348H29.3546C29.3546 36.1348 35.8046 36.1348 35.8046 29.6848V7.19377C35.8046 7.19377 35.8046 0.743767 29.3546 0.743767ZM14.9666 20.2588C14.9666 17.4478 4.96161 18.9358 0.413605 14.3878V20.2588C3.0596 21.4988 6.5326 22.2438 9.6746 22.2438C12.1556 22.2438 14.9666 21.7468 14.9666 20.2588Z" fill="#F9B000"/>
<path d="M53.4171 27.2873H55.4841L55.3191 28.4453H55.4021C55.8981 28.1143 57.2211 27.1213 60.6941 27.1213C65.5721 27.1213 67.4741 28.5273 67.4741 30.4293C67.4741 32.2483 65.2421 33.7373 60.6941 33.7373C58.1301 33.7373 56.5591 33.3233 55.5671 32.4963H55.4841V36.1353H53.4171V27.2873ZM60.3631 27.7833C56.7251 27.7833 55.4841 29.2713 55.4841 30.4293C55.4841 31.5873 56.7251 33.0753 60.3631 33.0753C64.2491 33.0753 65.2421 31.6693 65.2421 30.4293C65.2421 29.1893 64.2491 27.7833 60.3631 27.7833Z" fill="white"/>
<path d="M70.7819 28.6928C70.7819 28.0308 70.7819 27.7828 70.6169 27.2868H72.6839V28.5268H72.7669C73.5109 27.8658 74.9159 27.2048 76.9839 27.2048C77.4799 27.2048 78.0589 27.2048 78.3889 27.2868V28.1138C77.9759 28.0308 77.3969 28.0308 76.9009 28.0308C73.6759 28.0308 72.7669 29.4368 72.7669 30.5118V33.6538H70.6989L70.7819 28.6928Z" fill="white"/>
<path d="M87.7331 27.1218C93.1081 27.1218 95.4231 28.6928 95.4231 30.4298C95.4231 32.1658 93.0251 33.7368 87.7331 33.7368C82.3581 33.7368 80.0431 32.1658 80.0431 30.4298C80.0431 28.6928 82.3581 27.1218 87.7331 27.1218ZM87.7331 33.0758C91.2891 33.0758 93.1901 31.9178 93.1901 30.4298C93.1901 28.9408 91.2891 27.7838 87.7331 27.7838C84.1771 27.7838 82.2761 28.9408 82.2761 30.4298C82.2761 31.9178 84.1771 33.0758 87.7331 33.0758Z" fill="white"/>
<path d="M112.375 33.5713H110.308V32.5793H110.225C109.15 33.4063 107.414 33.7373 105.098 33.7373C100.55 33.7373 98.3175 32.3313 98.3175 30.4293C98.3175 28.5273 100.302 27.1213 105.098 27.1213C108.323 27.1213 109.977 28.0313 110.225 28.3623H110.308V24.3103H112.375V33.5713ZM105.429 33.0753C109.067 33.0753 110.308 31.5873 110.308 30.4293C110.308 29.2713 109.067 27.7833 105.429 27.7833C101.543 27.7833 100.55 29.1893 100.55 30.4293C100.55 31.6693 101.543 33.0753 105.429 33.0753Z" fill="white"/>
<path d="M128.995 32.0828C128.995 32.5788 128.995 33.0748 129.16 33.5708H127.176V32.4138H127.093C126.432 32.9928 125.191 33.6538 121.718 33.6538C117.667 33.6538 116.095 32.5788 116.095 31.2558V27.2048H118.163V31.0078C118.163 32.1658 119.238 32.9928 122.049 32.9928C125.77 32.9928 126.928 31.7518 126.928 30.6768V27.2048H128.995V32.0828Z" fill="white"/>
<path d="M144.21 28.1138C143.135 27.9488 141.812 27.7828 140.654 27.7828C136.685 27.7828 134.453 28.8578 134.453 30.4288C134.453 31.8348 136.685 33.0748 140.406 33.0748C141.729 33.0748 142.887 32.9928 144.127 32.8268L144.293 33.5718C142.887 33.7368 141.564 33.8198 140.076 33.8198C134.783 33.8198 132.137 32.2488 132.137 30.5118C132.137 28.6098 135.445 27.2048 140.324 27.2048C142.308 27.2048 143.714 27.3698 144.293 27.4528L144.21 28.1138Z" fill="white"/>
<path d="M155.786 27.9488H152.065V32.0008C152.065 32.5788 152.644 33.0748 154.298 33.0748C155.042 33.0748 155.621 32.9928 156.199 32.9098L156.365 33.5718C155.869 33.6548 154.876 33.7368 153.884 33.7368C150.246 33.7368 150.163 32.8268 150.163 31.6698V28.0318H146.773V27.3698H149.998V25.8818L152.065 25.6338V27.4528H155.786V27.9488Z" fill="white"/>
<path d="M53.7479 18.0261C56.1459 18.6051 58.7089 19.0181 61.1899 19.0181C65.2419 19.0181 71.0299 17.6951 71.0299 12.5681C71.0299 5.87107 61.1069 8.02107 61.1069 6.20107C61.1069 5.12707 62.5959 4.96107 64.0839 4.96107C65.9859 4.96107 67.8879 5.37507 69.6239 5.95307V1.24007C67.5569 0.827066 65.4069 0.496065 63.2569 0.496065C59.0399 0.496065 53.3349 1.40507 53.3349 6.44907C53.3349 13.3131 63.2569 11.1631 63.2569 13.3131C63.2569 14.2221 61.5209 14.4701 60.1149 14.4701C57.8819 14.4701 55.4839 13.8921 53.8309 12.8991L53.7479 18.0261Z" fill="white"/>
<path fill-rule="evenodd" clip-rule="evenodd" d="M74.5855 6.44907C76.3215 5.62207 78.4715 4.96107 80.5395 4.96107C82.6895 4.96107 85.0045 5.20907 85.0875 7.52407C84.3425 7.44207 82.9375 7.27607 81.7795 7.27607C77.5625 7.27607 72.6005 8.35107 72.6005 13.8081C72.6005 17.5301 75.8255 19.0181 79.1335 19.0181C81.5315 19.0181 83.7635 18.0261 84.9215 16.0411H85.0045V18.6041H92.9425V7.85507C92.9425 1.40507 86.9885 0.495066 82.1105 0.495066C78.8025 0.495066 77.2315 0.826066 74.6685 1.48807L74.5855 6.44907ZM85.0875 11.4101C85.0875 12.9821 84.1775 14.5531 82.4405 14.5531C81.1175 14.5531 80.4565 14.0561 80.4565 12.8161C80.4565 10.9971 82.5235 10.8321 84.2605 10.8321H85.0875V11.4101Z" fill="white"/>
<path d="M116.013 0.909067H107.413V11.0801C107.413 12.0721 107.413 13.4781 105.842 13.4781C104.354 13.4781 104.354 12.0721 104.354 11.0801V0.909067H95.7538V13.2301C95.7538 16.7021 97.4078 19.0181 101.956 19.0181C104.354 19.0181 106.752 18.0261 107.744 15.5451H107.827V18.6041H115.93L116.013 0.909067Z" fill="white"/>
<path fill-rule="evenodd" clip-rule="evenodd" d="M127.093 8.10307C127.01 6.69707 127.424 4.63007 129.408 4.63007C131.31 4.63007 131.558 6.78007 131.558 8.10307H127.093ZM138.918 11.8241V10.7491C138.918 4.79507 136.52 0.496067 129.656 0.496067C122.462 0.496067 118.659 3.47307 118.659 9.42607C118.659 15.5451 122.462 19.0181 129.656 19.0181C132.633 19.0181 135.362 18.6871 137.677 18.0261V13.3951C136.354 14.1401 134.204 14.5531 131.889 14.5531C129.408 14.5531 127.258 14.0571 127.176 11.8241H138.918Z" fill="white"/>
<path d="M141.398 0.909004V18.604H149.998V12.155C149.998 9.509 151.982 7.442 154.38 7.442C155.124 7.442 155.869 7.524 156.282 7.69V0.578005C155.951 0.495005 155.372 0.413004 154.876 0.413004C152.23 0.413004 150.494 2.315 149.502 4.795H149.419V0.909004H141.398Z" fill="white"/>
</g>
<defs>
<clipPath id="clip0_1_769">
<rect width="157.2" height="36" fill="white"/>
</clipPath>
</defs>
</svg>
